<svg xmlns="http://www.w3.org/2000/svg" width="30" height="30" viewBox="-1 -1 30 30" id="user-icon" x="204" y="136"><g fill="#FFF" fill-rule="evenodd"><path fill-rule="nonzero" d="M19.726 1.22a5.017 5.017 0 0 0-1.248 1.643A11.967 11.967 0 0 0 14 2C7.373 2 2 7.373 2 14s5.373 12 12 12 12-5.373 12-12c0-1.583-.307-3.094-.863-4.478a5.017 5.017 0 0 0 1.642-1.248A13.95 13.95 0 0 1 28 14c0 7.732-6.268 14-14 14S0 21.732 0 14 6.268 0 14 0c2.04 0 3.978.436 5.726 1.22z"/><path fill-rule="nonzero" d="M14 26a11.96 11.96 0 0 0 8.4-3.43A9.996 9.996 0 0 0 14 18a9.996 9.996 0 0 0-8.4 4.57A11.96 11.96 0 0 0 14 26zm0-10c4.786 0 8.918 2.802 10.844 6.855A13.972 13.972 0 0 1 14 28a13.972 13.972 0 0 1-10.844-5.145A12.001 12.001 0 0 1 14 16z"/><circle cx="23" cy="5" r="3"/><path fill-rule="nonzero" d="M14 16a4 4 0 1 0 0-8 4 4 0 0 0 0 8zm0 2a6 6 0 1 1 0-12 6 6 0 0 1 0 12z"/></g></svg>