<svg xmlns="http://www.w3.org/2000/svg" id="fs-icon-3" width="34" height="34" viewBox="-1 -1 34 34" x="136" y="118"><style>.bsst0,.bsst1{fill:#fff}.bsst1{fill-rule:evenodd;clip-rule:evenodd}</style><g id="bsXMLID_54_"><path id="bsXMLID_55_" class="bsst0" d="M16 0C7.2 0 0 7.2 0 16s7.2 16 16 16 16-7.2 16-16S24.8 0 16 0zm0 30C8.3 30 2 23.7 2 16S8.3 2 16 2s14 6.3 14 14-6.3 14-14 14z"/></g><g id="bsXMLID_26_"><g id="bsXMLID_91_"><path id="bsXMLID_92_" class="bsst1" d="M23.1 16.1l.7-1.3c-2.2-.3-4.2-.8-5.9-1.4 1.3-.8 2.5-1.8 3.4-2.9V9.2h-6.4l.6-.9-1.6-.3c-1.2 1.7-2.7 3-4.4 4l1 1.2c.8-.5 1.5-1 2.2-1.6.6.6 1.4 1.2 2.2 1.7-1.8.7-3.8 1.2-6.1 1.5l.7 1.3c.5-.1 1-.2 1.6-.3V23h1.5v-.6h7.6v.6h1.5v-7.2H11.3c1.8-.4 3.5-1 5-1.7 1.9.9 4.2 1.6 6.8 2zm-6.1 1h3.1v1.4H17v-1.4zm0 2.6h3.1v1.4H17v-1.4zm-4.6-2.6h3.1v1.4h-3.1v-1.4zm0 2.6h3.1v1.4h-3.1v-1.4zm1.1-9l.2-.2h5.5c-.8.8-1.8 1.5-3 2.1-1-.5-1.9-1.1-2.7-1.9z"/></g></g></svg>