<svg xmlns="http://www.w3.org/2000/svg" id="global-1616-1" viewBox="-1 -1 18 18" width="18" height="18" x="93" y="100"><style>.cast0{fill:#fff}.cast0,.cast1,.cast2{fill-rule:evenodd;clip-rule:evenodd}.cast1{opacity:.2;fill:#fff}.cast2{fill:none;stroke:#fff;stroke-miterlimit:10}</style><g id="caXMLID_2_"><g id="caXMLID_41_"><path id="caXMLID_42_" class="cast0" d="M8 1C4.1 1 1 4.1 1 8s3.1 7 7 7 7-3.1 7-7-3.1-7-7-7zm0 13c-3.3 0-6-2.7-6-6s2.7-6 6-6 6 2.7 6 6-2.7 6-6 6z"/></g></g><path id="caXMLID_1_" class="cast1" d="M2.5 5.1s1.4-.4 3.2-.8c1 .7-.3 2.2-.9 2.6-.6.4 0 1.7 0 1.7v.9h.9l.9 1.5.9.5.9-.3s1.1-1.5 0-3.5c1.9 0 1.7-1.7 1.7-1.7l4.2.7s-.9-4.1-5.1-5C5 .8 2.7 4 2.5 5.1z"/><path id="caXMLID_3_" class="cast2" d="M2.5 5.1s1.4-.4 3.2-.8c1 .7-.3 2.2-.9 2.6-.6.4 0 1.7 0 1.7v.9h.9l.9 1.5.9.5.9-.3s1.1-1.5 0-3.5c1.9 0 1.7-1.7 1.7-1.7l4.2.7s-.9-4.1-5.1-5C5 .8 2.7 4 2.5 5.1z"/></svg>