<?xml version="1.0" encoding="UTF-8"?>
<svg width="24px" height="24px" viewBox="0 0 24 24" version="1.1" xmlns="http://www.w3.org/2000/svg" xmlns:xlink="http://www.w3.org/1999/xlink">
    <!-- Generator: Sketch 52.6 (67491) - http://www.bohemiancoding.com/sketch -->
    <title>icon-0</title>
    <desc>Created with Sketch.</desc>
    <g id="icon-0" stroke="none" stroke-width="1" fill="none" fill-rule="evenodd">
        <g fill="#666666" id="XMLID_43_">
            <path d="M12,0 C5.4,0 0,5.4 0,12 C0,18.6 5.4,24 12,24 C18.6,24 24,18.6 24,12 C24,5.4 18.6,0 12,0 Z M12,22.5 C6.15,22.5 1.5,17.85 1.5,12 C1.5,6.15 6.15,1.5 12,1.5 C17.85,1.5 22.5,6.15 22.5,12 C22.5,17.85 17.85,22.5 12,22.5 Z M12,6 L10.5,6 L10.5,15 L18,15 L18,13.5 L12,13.5 L12,6 Z"></path>
        </g>
    </g>
</svg>