<?xml version="1.0" encoding="UTF-8"?>
<svg width="24px" height="24px" viewBox="0 0 24 24" version="1.1" xmlns="http://www.w3.org/2000/svg" xmlns:xlink="http://www.w3.org/1999/xlink">
    <!-- Generator: Sketch 52.6 (67491) - http://www.bohemiancoding.com/sketch -->
    <title>icon-3</title>
    <desc>Created with Sketch.</desc>
    <g id="icon-3" stroke="none" stroke-width="1" fill="none" fill-rule="evenodd">
        <g fill="#666666">
            <path d="M12,0 C5.4,0 0,5.4 0,12 C0,18.6 5.4,24 12,24 C18.6,24 24,18.6 24,12 C24,5.4 18.6,0 12,0 Z M12,22.5 C6.15,22.5 1.5,17.85 1.5,12 C1.5,6.15 6.15,1.5 12,1.5 C17.85,1.5 22.5,6.15 22.5,12 C22.5,17.85 17.85,22.5 12,22.5 Z" id="形状"></path>
            <path d="M16.3215,7.1325 L15.0885,8.2125 C14.0565,7.365 13.0545,6.9405 12.0825,6.9405 C11.4465,6.9405 10.9125,7.113 10.482,7.4565 C10.0515,7.8015 9.837,8.2245 9.837,8.7285 C9.837,9.2325 10.065,9.6645 10.5255,10.0245 C10.9845,10.3845 11.775,10.8165 12.897,11.3205 C14.022,11.8245 14.877,12.369 15.4665,12.9525 C16.056,13.5375 16.3515,14.253 16.3515,15.1005 C16.3515,16.173 15.915,17.076 15.045,17.8125 C14.175,18.549 13.1025,18.9165 11.8305,18.9165 C10.9875,18.9165 10.1775,18.7575 9.402,18.4365 C8.625,18.117 7.965,17.6685 7.4235,17.0925 L8.631,15.939 C9.6225,16.884 10.662,17.355 11.748,17.355 C12.5145,17.355 13.1715,17.1375 13.713,16.707 C14.2545,16.275 14.5275,15.7665 14.5275,15.1815 C14.5275,14.598 14.2905,14.118 13.812,13.7415 C13.335,13.3665 12.537,12.9375 11.424,12.4575 C10.3095,11.9805 9.4755,11.457 8.925,10.8885 C8.3715,10.3215 8.0955,9.585 8.0955,8.6805 C8.0955,7.776 8.484,7.005 9.261,6.3645 C10.038,5.7255 11.067,5.4045 12.3495,5.4045 C13.632,5.4045 14.9565,5.9805 16.3215,7.1325 Z" id="XMLID_88_"></path>
            <rect id="XMLID_4_" x="11.403" y="18.6545" width="1.5" height="1.5"></rect>
            <rect id="XMLID_10_" x="11.403" y="4" width="1.5" height="1.5"></rect>
        </g>
    </g>
</svg>