<?xml version="1.0" encoding="UTF-8"?>
<svg width="24px" height="24px" viewBox="0 0 24 24" version="1.1" xmlns="http://www.w3.org/2000/svg" xmlns:xlink="http://www.w3.org/1999/xlink">
    <!-- Generator: Sketch 52.6 (67491) - http://www.bohemiancoding.com/sketch -->
    <title>icon-4</title>
    <desc>Created with Sketch.</desc>
    <g id="icon-4" stroke="none" stroke-width="1" fill="none" fill-rule="evenodd">
        <g fill="#666666" id="XMLID_65_">
            <path d="M17.1428571,8.57142857 L6.85714286,8.57142857 L6.85714286,10.2857143 L17.1428571,10.2857143 L17.1428571,8.57142857 Z M18.8571429,0 L5.14285714,0 L5.14285714,5.14285714 L18.8571429,5.14285714 L18.8571429,0 Z M17.1428571,3.42857143 L6.85714286,3.42857143 L6.85714286,1.71428571 L17.1428571,1.71428571 L17.1428571,3.42857143 Z M20.5714286,1.71428571 L20.5714286,3.42857143 L22.2857143,3.42857143 L22.2857143,22.2857143 L1.71428571,22.2857143 L1.71428571,3.42857143 L3.42857143,3.42857143 L3.42857143,1.71428571 L0,1.71428571 L0,24 L24,24 L24,1.71428571 L20.5714286,1.71428571 Z M17.1428571,12 L6.85714286,12 L6.85714286,13.7142857 L17.1428571,13.7142857 L17.1428571,12 Z M6.85714286,17.1428571 L17.1428571,17.1428571 L17.1428571,15.4285714 L6.85714286,15.4285714 L6.85714286,17.1428571 Z"></path>
        </g>
    </g>
</svg>