<?xml version="1.0" encoding="UTF-8"?>
<svg width="24px" height="23px" viewBox="0 0 24 23" version="1.1" xmlns="http://www.w3.org/2000/svg" xmlns:xlink="http://www.w3.org/1999/xlink">
    <!-- Generator: Sketch 52.6 (67491) - http://www.bohemiancoding.com/sketch -->
    <title>icon-1</title>
    <desc>Created with Sketch.</desc>
    <g id="icon-1" stroke="none" stroke-width="1" fill="none" fill-rule="evenodd">
        <g fill="#666666" id="XMLID_38_">
            <path d="M22.3146164,6.54460841 L17.1504501,6.54460841 L17.1504501,4.94111404 C17.1504501,4.92805095 17.1538791,4.91662074 17.1538791,4.90355765 C17.1538791,2.19459923 14.8478354,0 12.0034291,0 C9.15902272,0 6.852979,2.19623211 6.852979,4.90355765 C6.852979,4.90682342 6.852979,4.9100892 6.852979,4.91335497 L6.852979,6.54460841 L1.68881269,6.54460841 L0,22.8604086 L24,22.8604086 L22.3146164,6.54460841 Z M8.56922417,4.91335497 C8.56922417,4.9100892 8.56750964,4.90682342 8.56750964,4.90355765 C8.56750964,3.09758537 10.1088727,1.62962056 12.0034291,1.62962056 C13.8979854,1.62962056 15.4393485,3.09921826 15.4393485,4.90355765 C15.4393485,4.90682342 15.4376339,4.9100892 15.4376339,4.91335497 L15.4342049,4.91335497 L15.4342049,6.54460841 L8.57093871,6.54460841 L8.56922417,4.91335497 Z M1.89284183,21.2307881 L3.24389198,8.17749474 L6.85469353,8.17749474 L6.85469353,13.072888 L8.57093871,13.072888 L8.57093871,8.17586186 L15.4342049,8.17586186 L15.4342049,13.0712551 L17.1504501,13.0712551 L17.1504501,8.17586186 L20.7595371,8.17586186 L22.1071582,21.2291552 L1.89284183,21.2291552 L1.89284183,21.2307881 Z"></path>
        </g>
    </g>
</svg>