<svg xmlns="http://www.w3.org/2000/svg" id="fs-icon-1" width="34" height="34" viewBox="-1 -1 34 34" x="102" y="152"><style>.bost0{fill-rule:evenodd;clip-rule:evenodd;fill:#fff}</style><g id="boXMLID_15_"><path id="boXMLID_29_" class="bost0" d="M16 0C7.2 0 0 7.2 0 16s7.2 16 16 16 16-7.2 16-16S24.8 0 16 0zm0 30C8.3 30 2 23.7 2 16S8.3 2 16 2s14 6.3 14 14-6.3 14-14 14z"/><path id="boXMLID_30_" class="bost0" d="M22.5 12.3l-1.4-.5c-.3.9-.6 1.8-.9 2.6h-1.5c-.3-1-.6-1.9-.9-2.6l-1.4.5.9 2.1h-1.9v1.5h8.3v-1.5h-1.8c.1-.6.4-1.3.6-2.1z"/><path id="boXMLID_31_" class="bost0" d="M23.1 10H20c-.2-.6-.4-1.1-.5-1.5l-1.5.3c.2.4.4.8.6 1.3h-3.1v1.4h7.7V10z"/><path id="boXMLID_32_" class="bost0" d="M10.6 10.5h2.8v8.9h1.3V9.2H9.2v10.5h1.4z"/><path id="boXMLID_33_" class="bost0" d="M12.6 11.6h-1.2v5.2c0 1.4-.2 2.5-.6 3.4-.4.8-1.1 1.5-2.3 2l.8 1.2c1.1-.5 1.9-1.3 2.4-2.3.5-1.1.8-2.5.8-4.3v-5.2z"/><path id="boXMLID_34_" class="bost0" d="M12.3 20.7c.9.9 1.6 1.8 2.1 2.6l1-1c-.6-.8-1.4-1.7-2.2-2.5l-.9.9z"/><path id="boXMLID_37_" class="bost0" d="M16.1 23.4h1.4v-.8h3.6v.8h1.4v-6.3H16v6.3zm1.5-4.9h3.6v2.6h-3.6v-2.6z"/></g></svg>