<svg xmlns="http://www.w3.org/2000/svg" id="fs-icon-4" width="34" height="34" viewBox="-1 -1 34 34" x="170" y="34"><style>.bust0{fill-rule:evenodd;clip-rule:evenodd;fill:#fff}</style><path class="bust0" d="M16 32C7.2 32 0 24.8 0 16S7.2 0 16 0s16 7.2 16 16-7.2 16-16 16zm0-30C8.3 2 2 8.3 2 16s6.3 14 14 14 14-6.3 14-14S23.7 2 16 2zm1.7 22c-6.3 0-5.9-4-5.9-4 0-2.3 1.3-4.3 3.2-5.3-.5-.6-.8-1.3-.8-2.2 0-1.9 1.5-3.5 3.5-3.5 1.9 0 3.5 1.6 3.5 3.5 0 .8-.3 1.6-.8 2.2 1.9 1 3.2 3 3.2 5.3.1 0 .3 4-5.9 4zm0-13c-.8 0-1.5.7-1.5 1.5s.7 1.5 1.5 1.5 1.5-.7 1.5-1.5-.7-1.5-1.5-1.5zm4 9c0-2.2-1.8-4-3.9-4-2.2 0-3.9 1.8-3.9 4 0 0-.3 2 3.9 2 4 0 3.9-2 3.9-2zM12.5 9.7c-.5.6-.8 1.4-.8 2.2 0 1 .4 1.8 1 2.5-.8.4-2 1-2.4 1.6l-.4.4c-.5.9-.9 1.6-.9 3.3 0 0 0 .3.1.7-1.2-.9-1.2-2.2-1.2-2.2 0-1.9 1-3.5 2.6-4.3-.4-.5-.6-1.1-.6-1.7 0-1.5 1.2-2.8 2.8-2.8h.3c-.1.1-.2.1-.2.2-.2 0-.2.1-.3.1z"/></svg>