<svg xmlns="http://www.w3.org/2000/svg" id="fs-icon-5" width="34" height="34" viewBox="-1 -1 34 34" x="170" y="102"><style>.bwst0{fill:#fff}</style><g id="bwXMLID_68_"><path id="bwXMLID_69_" class="bwst0" d="M16 0C7.2 0 0 7.2 0 16s7.2 16 16 16 16-7.2 16-16S24.8 0 16 0zm0 30C8.3 30 2 23.7 2 16S8.3 2 16 2s14 6.3 14 14-6.3 14-14 14zm3.4-12.8c-.8 0-1.3.4-2 .4s-3.5-2.9-3.5-3.7c0-.8.7-.6.7-1.5 0-.6-2.4-4.5-3.3-4.5-.9.1-3.3 2-3.3 3.5C8 15.8 15.8 24 20.7 24c1.4 0 3.3-1.7 3.3-3.4 0-.6-3.8-3.3-4.6-3.4zm2.3 4.5c-.2.2-.4.3-.6.4-.1.1-.3.1-.4.1-.9 0-2-.4-3.3-1.1-1.2-.7-2.5-1.8-3.7-3-1.2-1.2-2.2-2.5-2.9-3.7-.4-.6-.6-1.2-.8-1.7-.2-.5-.3-.9-.3-1.3 0 0 0-.2.1-.3.1-.2.3-.4.5-.6.2-.2.5-.4.7-.5 0 .1.1.1.1.2.2.3.5.6.7 1 .4.6.7 1.2.8 1.5 0 .1-.1.1-.1.2-.2.4-.4.7-.4 1.5 0 .5.2 1.1.8 1.8.3.4.7.9 1.2 1.4.5.5 1 .9 1.4 1.2.7.5 1.2.8 1.8.8.7 0 1.2-.3 1.6-.5.1-.1.2 0 .3.1.3.1.8.4 1.5 1 .7.5 1.1.8 1.3 1 .1.1-.1.3-.3.5z"/></g></svg>