<svg xmlns="http://www.w3.org/2000/svg" id="icon-tc" width="93" height="18" viewBox="-1 -1 93 18" y="100"><style>.clst0{fill:#999}</style><g id="clXMLID_80_"><path id="clXMLID_81_" class="clst0" d="M83.8 1.9l-.6 3h-3.8l1.5 2h2l-1.6 8.8h3.4L86.2 7h4.3l-6.7-5.1zM16.4 0H.9L.5 2.3h6L4 15.8h3.4L9.9 2.3H16l.4-2.3zM19 4.7c-4.3 0-7.1 2.6-7.7 5.5-.6 3.3 1.6 5.7 5.9 5.7 2 0 3.8-.3 5.3-1.1l.5-2.5c-1.5 1-3.3 1.5-4.9 1.5-2.2 0-3.9-.9-3.6-2.8h9c.1-.2.2-.6.3-1.1.5-2.3-.4-5.2-4.8-5.2zm1.7 4.5h-5.9c.4-1.1 1.5-2.6 3.6-2.6 2.3 0 2.5 1.6 2.3 2.6zm13.4-4.5c-2.1 0-3.7.8-4.5 1.7h-.1l-3-1.7c-.1.9-.3 2.2-.5 3.5l-1.4 7.6H28l1.2-6.4.3-.9c.5-.8 1.6-1.6 2.9-1.6 1.9 0 2.4 1.2 2.1 2.7l-1.1 6.1h3.4L38 9.4c.6-3.5-1.6-4.7-3.9-4.7zm40.9 0c-2.1 0-3.7.8-4.5 1.7h-.1l-3-1.7c-.1.9-.3 2.2-.5 3.5l-1.4 7.6H69l1.2-6.4.3-.9c.5-.8 1.6-1.6 2.9-1.6 1.9 0 2.4 1.2 2.1 2.7l-1.1 6.1h3.4L79 9.4c.6-3.5-1.6-4.7-4-4.7zm-15.1 0c-4.3 0-7.1 2.6-7.7 5.5-.6 3.3 1.6 5.7 5.9 5.7 2 0 3.8-.3 5.3-1.1l.5-2.5c-1.5 1-3.3 1.5-4.9 1.5-2.2 0-3.9-.9-3.6-2.8h9c.1-.2.2-.6.3-1.1.5-2.3-.4-5.2-4.8-5.2zm1.8 4.5h-5.9c.4-1.1 1.5-2.6 3.6-2.6 2.3 0 2.5 1.6 2.3 2.6zm-22.3 1c-.6 3.3 1.9 5.8 6.1 5.8 1.7 0 3.7-.5 4.5-.7l.6-2.9c-1.2 1.2-2.8 1.4-3.9 1.4-2.3 0-4.1-1.3-3.7-3.5.4-2 2.4-3.5 5-3.5 1.1 0 2.5.3 3.4 1.5l.5-2.9c-.7-.3-1.9-.6-3.7-.6-4.8-.1-8.2 2.2-8.8 5.4z"/></g></svg>