<svg xmlns="http://www.w3.org/2000/svg" id="icon-wb-h" width="18" height="18" viewBox="-298 388 18 18" x="18" y="236"><style>.crst0{fill:#fff}</style><path class="crst0" d="M-282.1 391.8c-1.1-1.2-2.6-1.6-4-1.3-.3.1-.5.4-.5.7.1.3.4.5.7.5 1-.2 2.1.1 2.9.9.7.8.9 2 .6 3-.1.3.1.7.4.8.3.1.7-.1.8-.4.4-1.4.2-3-.9-4.2zm-1.8 3.8c.3.1.6-.1.7-.3.2-.7.1-1.5-.4-2-.5-.6-1.3-.8-2-.6-.3.1-.5.3-.4.6.1.3.3.5.6.4.3-.1.7 0 1 .3s.3.7.2 1c-.2.2 0 .5.3.6zm-1.1 1.1c-.2-.1-.5-.1-.3-.4.3-.6.4-1.2.1-1.6-.5-.7-1.9-.7-3.6 0 0 0-.5.2-.4-.2.3-.8.2-1.5-.2-1.9-.9-.9-3.2 0-5.2 2.1-1.5 1.5-2.4 3.1-2.4 4.5 0 2.7 3.4 4.3 6.7 4.3 4.4 0 7.2-2.5 7.2-4.5.1-1.4-1-2.1-1.9-2.3zm-5.3 5.7c-2.6.3-4.9-.9-5.1-2.7-.2-1.7 1.8-3.4 4.5-3.6 2.6-.3 4.9.9 5.1 2.7.2 1.8-1.8 3.4-4.5 3.6zm.3-4.9c-1.3-.3-2.7.3-3.2 1.4-.6 1.1 0 2.4 1.3 2.8s2.9-.2 3.4-1.5c.5-1.2-.2-2.4-1.5-2.7zm-1 2.9c-.3.4-.8.6-1.2.4-.4-.2-.5-.7-.3-1.1.3-.4.8-.6 1.2-.4.4.2.6.7.3 1.1zm.9-1.1c-.1.2-.3.2-.5.2-.2-.1-.2-.2-.1-.4s.3-.2.4-.2c.2 0 .3.2.2.4z"/></svg>