<svg xmlns="http://www.w3.org/2000/svg" id="icon-wx-h" width="18" height="18" viewBox="-298 388 18 18" x="54" y="236"><style>.ctst0{fill:#fff}</style><path class="ctst0" d="M-280.9 398.9c0-2.3-2.3-4.1-4.8-4.1-2.7 0-4.8 1.8-4.8 4.1s2.1 4.1 4.8 4.1c.6 0 1.1-.1 1.7-.3l1.6.8-.4-1.4c1.1-.8 1.9-1.9 1.9-3.2zm-6.4-.7c-.3 0-.5-.2-.5-.5s.2-.5.5-.5.5.2.5.5c0 .2-.2.5-.5.5zm3.1 0c-.3 0-.5-.2-.5-.5s.2-.5.5-.5.5.2.5.5c0 .2-.2.5-.5.5zm-1.9-3.7h.5c-.5-2.3-2.9-4-5.7-4-3.1 0-5.7 2.1-5.7 4.8 0 1.6.8 2.8 2.3 3.8l-.6 1.7 2-1c.7.1 1.3.3 2 .3h.5c-.1-.4-.2-.8-.2-1.2.1-2.4 2.2-4.4 4.9-4.4zm-3.1-1.5c.4 0 .8.3.8.7s-.3.7-.8.7c-.4 0-.8-.3-.8-.7s.4-.7.8-.7zm-4 1.5c-.4 0-.7-.3-.7-.7s.3-.7.7-.7c.4 0 .8.3.8.7s-.4.7-.8.7z"/></svg>